<svg width="23" height="23" viewBox="0 0 23 23" fill="none" xmlns="http://www.w3.org/2000/svg">
<path fill-rule="evenodd" clip-rule="evenodd" d="M15.8785 6.87711C15.8785 9.57066 13.6949 11.7542 11.0014 11.7542C8.3078 11.7542 6.12425 9.57066 6.12425 6.87711C6.12425 4.18356 8.3078 2 11.0014 2C13.6949 2 15.8785 4.18356 15.8785 6.87711ZM17.8785 6.87711C17.8785 10.6752 14.7995 13.7542 11.0014 13.7542C7.20323 13.7542 4.12425 10.6752 4.12425 6.87711C4.12425 3.07899 7.20323 0 11.0014 0C14.7995 0 17.8785 3.07899 17.8785 6.87711ZM15.9693 16.1859C16.6498 16.6809 17.2491 17.2744 17.7456 17.9433C18.1984 18.5532 18.5658 19.2257 18.8316 19.9433H16.647H5.35422H3.16967C3.43546 19.2257 3.80285 18.5532 4.25558 17.9433C4.75235 17.2742 5.35188 16.6805 6.0327 16.1854C6.50288 15.8434 6.69954 15.1774 6.39059 14.6849C6.05374 14.148 5.7144 13.8566 4.7185 13.9125C4.54407 13.9223 4.3766 13.9871 4.23736 14.0926C1.9642 15.8154 0.392789 18.3861 0.0155393 21.3217C-0.0812825 22.0752 0.543805 22.6942 1.30343 22.6942H20.6978C21.4574 22.6942 22.0825 22.0752 21.9857 21.3217C21.6085 18.3864 20.0373 15.8159 17.7645 14.0931C17.6253 13.9876 17.458 13.9228 17.2836 13.9129C16.2879 13.8567 15.9487 14.1481 15.6116 14.6852C15.3025 15.1777 15.4991 15.8439 15.9693 16.1859Z" fill="#EAEAEA"/>
</svg>
