<svg width="26" height="25" viewBox="0 0 26 25" fill="none" xmlns="http://www.w3.org/2000/svg">
<path fill-rule="evenodd" clip-rule="evenodd" d="M23.7961 11.7276C23.7961 16.5477 19.8886 20.4552 15.0685 20.4552C12.8851 20.4552 10.8889 19.6534 9.35838 18.3282C9.33545 18.108 9.23963 17.894 9.0709 17.7252C8.90217 17.5565 8.68815 17.4607 8.46798 17.4378C7.14274 15.9072 6.34094 13.911 6.34094 11.7276C6.34094 6.90748 10.2484 3 15.0685 3C19.8886 3 23.7961 6.90748 23.7961 11.7276ZM8.22292 19.9874C10.0804 21.5286 12.4663 22.4552 15.0685 22.4552C20.9932 22.4552 25.7961 17.6523 25.7961 11.7276C25.7961 5.80291 20.9932 1 15.0685 1C9.14384 1 4.34094 5.80291 4.34094 11.7276C4.34094 14.3298 5.2675 16.7157 6.80871 18.5732L2.29289 23.089C1.90237 23.4796 1.90237 24.1127 2.29289 24.5032C2.68342 24.8938 3.31658 24.8938 3.70711 24.5032L8.22292 19.9874Z" fill="#EAEAEA"/>
</svg>
