<svg width="28" height="25" viewBox="0 0 28 25" fill="none" xmlns="http://www.w3.org/2000/svg">
<path fill-rule="evenodd" clip-rule="evenodd" d="M0 1C0 0.447715 0.447715 0 1 0H5.93255C6.37616 0 6.76674 0.292251 6.89191 0.717834L10.7912 13.9756H23.2378L25.2041 6.11046H14.1535C13.6012 6.11046 13.1535 5.66274 13.1535 5.11046C13.1535 4.55817 13.6012 4.11046 14.1535 4.11046H26.4848C26.7928 4.11046 27.0835 4.25233 27.273 4.49505C27.4626 4.73776 27.5297 5.05425 27.455 5.35299L24.9887 15.2181C24.8774 15.6633 24.4774 15.9756 24.0186 15.9756H10.043C9.5994 15.9756 9.20881 15.6833 9.08364 15.2577L5.18431 2H1C0.447715 2 0 1.55228 0 1ZM9.22091 22.0186C9.93245 22.0186 10.5093 21.4417 10.5093 20.7302C10.5093 20.0186 9.93245 19.4418 9.22091 19.4418C8.50936 19.4418 7.93254 20.0186 7.93254 20.7302C7.93254 21.4417 8.50936 22.0186 9.22091 22.0186ZM9.22091 24.0186C11.037 24.0186 12.5093 22.5463 12.5093 20.7302C12.5093 18.9141 11.037 17.4418 9.22091 17.4418C7.40479 17.4418 5.93254 18.9141 5.93254 20.7302C5.93254 22.5463 7.40479 24.0186 9.22091 24.0186ZM25.307 20.7302C25.307 21.4417 24.7301 22.0186 24.0186 22.0186C23.307 22.0186 22.7302 21.4417 22.7302 20.7302C22.7302 20.0186 23.307 19.4418 24.0186 19.4418C24.7301 19.4418 25.307 20.0186 25.307 20.7302ZM27.307 20.7302C27.307 22.5463 25.8347 24.0186 24.0186 24.0186C22.2025 24.0186 20.7302 22.5463 20.7302 20.7302C20.7302 18.9141 22.2025 17.4418 24.0186 17.4418C25.8347 17.4418 27.307 18.9141 27.307 20.7302Z" fill="#EAEAEA"/>
</svg>
